<?xml version="1.0" encoding="UTF-8" standalone="no"?>
<svg
   xmlns:dc="http://purl.org/dc/elements/1.1/"
   xmlns:cc="http://creativecommons.org/ns#"
   xmlns:rdf="http://www.w3.org/1999/02/22-rdf-syntax-ns#"
   xmlns:svg="http://www.w3.org/2000/svg"
   xmlns="http://www.w3.org/2000/svg"
   width="100"
   height="100"
   viewBox="0 0 100 100"
   version="1.1"
   id="svg851">
  <metadata
     id="metadata857">
    <rdf:RDF>
      <cc:Work
         rdf:about="">
        <dc:format>image/svg+xml</dc:format>
        <dc:type
           rdf:resource="http://purl.org/dc/dcmitype/StillImage" />
        <dc:title></dc:title>
      </cc:Work>
    </rdf:RDF>
  </metadata>
  <defs
     id="defs855" />
  <path
     d="m 59.942,4.797 c -0.566,-0.14 -1.146,-0.211 -1.726,-0.211 -2.744,0 -5.162,1.552 -6.373,3.907 -1.164,-0.098 -2.337,-0.169 -3.526,-0.169 -23.893,0 -43.331,19.439 -43.331,43.332 0,23.893 19.438,43.331 43.331,43.331 17.525,0 32.64,-10.464 39.459,-25.466 0.091,0.003 0.181,0.018 0.271,0.018 3.25,0 6.106,-2.195 6.945,-5.337 1.086,-4.06 1.636,-8.267 1.636,-12.504 C 96.629,29.422 81.542,10.135 59.942,4.797 Z M 48.317,90.561 C 26.865,90.561 9.412,73.108 9.412,51.656 9.412,30.203 26.865,12.75 48.317,12.75 c 0.938,0 1.865,0.048 2.786,0.116 0.14,0.919 0.461,1.81 0.956,2.629 0.992,1.645 2.566,2.805 4.431,3.265 15.163,3.748 25.754,17.292 25.754,32.937 0,2.982 -0.386,5.939 -1.148,8.789 -0.496,1.856 -0.24,3.794 0.722,5.457 0.463,0.801 1.066,1.489 1.771,2.045 C 77.402,81.297 63.934,90.561 48.317,90.561 Z M 91.786,63.345 c -0.539,2.017 -2.694,3.287 -4.74,2.741 -1,-0.267 -1.836,-0.908 -2.353,-1.803 -0.518,-0.896 -0.656,-1.939 -0.388,-2.939 0.836,-3.13 1.26,-6.375 1.26,-9.647 0,-17.175 -11.628,-32.045 -28.277,-36.159 -1.004,-0.249 -1.852,-0.873 -2.386,-1.759 -0.535,-0.886 -0.693,-1.926 -0.444,-2.93 0.428,-1.734 1.974,-2.944 3.759,-2.944 0.31,0 0.623,0.038 0.928,0.114 20.116,4.972 34.165,22.933 34.165,43.679 -0.001,3.947 -0.513,7.865 -1.524,11.647 z"
     id="path839"
     style="fill:#aa0000" />
  <circle
     cx="48.318001"
     cy="51.654999"
     r="24.245001"
     id="circle841"
     style="fill:#aa0000" />
</svg>
